<?xml version="1.0" encoding="UTF-8" standalone="no"?>
<!DOCTYPE svg PUBLIC "-//W3C//DTD SVG 1.1//EN" "http://www.w3.org/Graphics/SVG/1.1/DTD/svg11.dtd">
<svg width="100%" height="100%" viewBox="0 0 655 268" version="1.1" xmlns="http://www.w3.org/2000/svg" xmlns:xlink="http://www.w3.org/1999/xlink" xml:space="preserve" xmlns:serif="http://www.serif.com/" style="fill-rule:evenodd;clip-rule:evenodd;stroke-linejoin:round;stroke-miterlimit:1.41421;">
    <g id="layer120">
        <path d="M327.4,185.7C327.1,184.9 328.5,179.9 330.5,174.5C332.4,169.2 334,164.1 334,163.3C334,162 323.8,135.6 322,132.1C320.1,128.6 315.3,114.5 315.7,113.8C316.5,112.4 332.7,112.9 333.7,114.3C334.3,114.9 336.7,121 339.1,127.7C341.5,134.5 343.7,139.7 344.1,139.2C344.4,138.8 346.4,133.8 348.4,128C353.8,112.6 353.5,113 363.1,113C368.7,113 371.2,113.4 371.6,114.3C371.8,115 370.3,120.1 368.1,125.6C364.6,134.2 349.9,172.2 346.8,180.5C344.6,186.3 343.3,187 335.3,187C330.1,187 327.8,186.6 327.4,185.7Z" style="fill:rgb(255,254,254);fill-rule:nonzero;"/>
        <path d="M219.3,166.6C214.2,164.3 212.7,160.9 212.2,151C211.8,143 212,142 214.4,138.2C217.7,132.9 220.5,132.2 234.3,132.8L245.2,133.2L244,131C242.8,128.8 242.5,128.7 232.1,129.3C226.3,129.7 219.9,129.6 218,129.2L214.5,128.4L214.5,121L214.5,113.5L234.7,113.5C254.6,113.5 254.9,113.5 257.4,115.9C261.2,119.5 262,123.8 262,141.3C262,166.6 261.3,167.4 238,167.8C226.3,167.9 221.7,167.7 219.3,166.6ZM244,149C244,147.2 243.3,147 237,147C231.8,147 230,147.3 230,148.3C230,150.6 231.1,151 237.7,151C243.3,151 244,150.8 244,149Z" style="fill:rgb(255,254,254);fill-rule:nonzero;"/>
        <path d="M267.1,166.6C266.3,165.7 266,162.5 266.2,157.8L266.5,150.5L281.8,150.2C300.1,149.9 302.9,148 285,148C273.1,148 273.1,148 269.5,144.9L266,141.8L266,130.9C266,120.3 266.1,119.9 268.9,116.8L271.8,113.5L313.5,113.5L313.5,129.5L298.3,129.8C279.5,130.1 277.3,132 295.6,132L308.2,132L315,138.8L315,160L311.6,163.8L308.2,167.5L288.2,167.8C271.9,168 268.1,167.8 267.1,166.6Z" style="fill:rgb(255,254,254);fill-rule:nonzero;"/>
        <path d="M400.5,166.7C400.2,166.1 400.1,150.2 400.2,131.5L400.5,97.5L419.5,97.2C442,96.9 444.4,97.2 448.2,101.2L451,104.2L451,134.8L447.5,137.9L443.9,141L431,141L418,141L418,153.3C418,161.5 417.6,166 416.8,166.8C415.1,168.5 401.1,168.4 400.5,166.7ZM434,120C434,118.3 433.5,117 432.8,116.9C432.1,116.9 428.5,116.8 424.8,116.7L418,116.5L418,123L434,123L434,120Z" style="fill:rgb(255,254,254);fill-rule:nonzero;"/>
        <path d="M455.4,166.7C455.1,165.9 455,155.1 455.2,142.6L455.5,119.8L459.3,116.4L463,112.9L474.8,113.2L486.5,113.5L486.8,120.8C487.2,130.1 486.5,131 478.9,131C475.6,131 472.9,131.1 472.8,131.3C472.7,131.4 472.4,139.6 472.1,149.5L471.5,167.5L463.7,167.8C457.8,168 455.8,167.8 455.4,166.7Z" style="fill:rgb(255,254,254);fill-rule:nonzero;"/>
        <path d="M490.5,166.8C490.2,166.1 490.1,153.8 490.2,139.5L490.5,113.5L507.5,113.5L507.5,167.5L499.2,167.8C493.1,168 490.8,167.7 490.5,166.8Z" style="fill:rgb(255,254,254);fill-rule:nonzero;"/>
        <path d="M511.7,167.3C511.3,167 511,156.8 511,144.8C511,120.5 511.4,118.5 517.3,115C520.1,113.2 522.4,113 536.7,113C552.4,113 552.9,113.1 555.8,115.5C560.7,119.6 561.1,121.6 560.8,145.5L560.5,167.5L553.2,167.8C548.6,168 545.3,167.6 544.4,166.9C543.3,166 543,162.1 543,148.4L543,131L536,131L529,131L529,148.3C529,160.4 528.6,166 527.8,166.8C526.5,168.1 512.9,168.5 511.7,167.3Z" style="fill:rgb(255,254,254);fill-rule:nonzero;"/>
        <path d="M572.1,166.7C570.2,166 567.7,164.2 566.6,162.7C564.6,160 564.5,158.5 564.2,129.8C564,107.6 564.2,99.4 565.1,98.4C566,97.3 568.2,97 573.9,97.2L581.5,97.5L582.1,112.9L593.5,113.5L593.5,130.5L587.8,130.8L582,131.1L582,149.9L587.8,150.2L593.5,150.5L593.5,167.5L584.5,167.7C579.4,167.8 574,167.4 572.1,166.7Z" style="fill:rgb(255,254,254);fill-rule:nonzero;"/>
        <path d="M96.3,165.8C95.3,164.5 87.8,141.4 82.5,123.5C81,118.6 79.5,113.6 79,112.5C76.9,107.6 74.9,100 75.5,99C76.4,97.5 91.5,97.7 92.7,99.3C93.6,100.5 98.1,116.2 101.7,130.5L103.4,137.5L107,119.5C109,109.6 110.9,100.7 111.3,99.7C111.8,98.4 113.2,98 117.8,98C121.4,98 124.1,98.5 124.7,99.3C125.5,100.3 130.2,120.7 132.7,133.9C133.2,136.8 134.1,134.5 138.4,117.9L143.5,98.5L151.4,98.2C155.8,98 159.9,98.1 160.6,98.4C161.9,98.9 160.9,102.5 152,130.5C149.3,138.8 145.9,149.8 144.5,155C143,160.2 141.3,165.1 140.8,165.8C139.5,167.3 126.8,167.4 125.3,165.9C124.7,165.3 122.9,158.6 121.4,151C119.8,143.4 118.4,137.2 118.3,137.4C118.2,137.5 116.9,143.2 115.5,150C111.8,167.8 112.4,167 104.1,167C99.8,167 96.9,166.5 96.3,165.8Z" style="fill:rgb(255,254,254);fill-rule:nonzero;"/>
        <path d="M163.7,165C159.5,161.7 158.8,157.3 159.2,137.8L159.5,120L162.8,116.8L166,113.5L183.5,113.2L200.9,112.9L204.6,116.2C208,119.4 208.3,120.1 208.7,126.6C209.4,135.4 207.8,141.1 203.9,144.4C201,146.9 200.3,147 188.3,147C177,147 175.9,147.2 176.2,148.8C176.5,150.3 178.2,150.6 191,151L205.5,151.5L205.5,166.5L185.9,166.8C167.4,167 166.2,166.9 163.7,165ZM191,131.5C191,130.3 189.5,130 183.5,130C177.5,130 176,130.3 176,131.5C176,132.7 177.5,133 183.5,133C189.5,133 191,132.7 191,131.5Z" style="fill:rgb(255,254,254);fill-rule:nonzero;"/>
        <path d="M491.7,109.2C489.3,106.5 489.4,99.4 491.9,98C495.3,96.2 504.5,96.8 506.3,98.8C508.6,101.3 508.5,107.3 506.2,109.3C503.5,111.7 493.9,111.6 491.7,109.2Z" style="fill:rgb(255,254,254);fill-rule:nonzero;"/>
    </g>
</svg>
